<?xml version="1.0" standalone="no"?>
<!DOCTYPE svg PUBLIC "-//W3C//DTD SVG 20010904//EN" "http://www.w3.org/TR/2001/REC-SVG-20010904/DTD/svg10.dtd">
<!-- Created using Krita: https://krita.org -->
<svg xmlns="http://www.w3.org/2000/svg" 
    xmlns:xlink="http://www.w3.org/1999/xlink"
    xmlns:krita="http://krita.org/namespaces/svg/krita"
    xmlns:sodipodi="http://sodipodi.sourceforge.net/DTD/sodipodi-0.dtd"
    width="259.2pt"
    height="259.2pt"
    viewBox="0 0 259.2 259.2">
<defs/>
<path id="shape01" transform="matrix(5.34701408653319 -0.101167810010135 -0.0253953704165145 6.47824650406082 119.068754241646 65.1489038871894)" fill="#ff927e" fill-rule="evenodd" stroke="#000000" stroke-width="0.72" stroke-linecap="square" stroke-linejoin="bevel" d="M2.37599 0C4.39199 0.432 5.25599 1.08 4.96799 1.944C4.67999 2.808 3.02399 3.024 0 2.592C0.575994 2.592 1.36799 1.728 2.37599 0Z" sodipodi:nodetypes="czcc"/><path id="shape11" transform="matrix(5.34701408653319 -0.101167810010135 -0.0253953704165145 6.47824650406082 87.4026701160434 67.8468807259885)" fill="#ff927e" fill-rule="evenodd" stroke="#000000" stroke-width="0.72" stroke-linecap="square" stroke-linejoin="bevel" d="M5.12866 0C3.49665 2.112 4.91265 3.612 9.37665 4.49999C8.76945 5.56468 7.61745 5.99668 5.92066 5.79599C-1.70008 3.91032 -1.96408 1.97832 5.12866 0Z" sodipodi:nodetypes="cccc"/><path id="shape2" transform="matrix(5.34701408653319 -0.101167810010135 -0.0253953704165145 6.47824650406082 107.317350819191 39.7192937813383)" fill="#ff927e" fill-rule="evenodd" stroke="#000000" stroke-width="0.72" stroke-linecap="square" stroke-linejoin="bevel" d="M2.21657 3.168C5.48056 1.92 7.68856 2.16 8.84056 3.888C8.01004 7.27876 8.59227 8.67381 10.5872 8.07313C13.5797 7.17211 13.0767 1.34059 7.40056 0C3.65656 0.432 -3.68744 0.288 2.21657 3.168Z" sodipodi:nodetypes="cczcc"/><path id="shape3" transform="matrix(5.34701408653319 -0.101167810010135 -0.0253953704165145 6.47824650406082 87.4083243692951 71.6147986478448)" fill="#ff927e" fill-rule="evenodd" stroke="#000000" stroke-width="0.72" stroke-linecap="square" stroke-linejoin="bevel" d="M17.9531 0C17.0028 4.34446 14.5987 5.65057 10.7408 3.91832C9.95694 6.0269 8.34894 6.9389 5.91683 6.65432C1.18204 4.92332 -2.53057 4.14941 2.17283 10.5423C4.89595 10.7203 6.14395 11.9683 5.91683 14.2863C7.22512 12.1973 11.0336 9.64132 17.3422 6.61852C18.3604 3.36017 18.2586 3.41108 17.9531 0Z" sodipodi:nodetypes="ccccccc"/><path id="shape4" transform="matrix(5.34701408653319 -0.101167810010135 -0.0253953704165145 6.47824650406082 60.7347074491955 15.1685382900497)" fill="#ff927e" fill-rule="evenodd" stroke="#000000" stroke-width="0.72" stroke-linecap="square" stroke-linejoin="bevel" d="M3.38711 12.0621C4.24128 6.23465 7.55328 3.04265 13.3231 2.48607C15.2392 1.95347 18.2632 3.12947 22.3951 6.01407C20.3688 1.30708 16.0248 -0.636921 9.36311 0.182071C8.0131 0.348042 -6.40489 3.63807 3.38711 12.0621Z" sodipodi:nodetypes="cccsc"/><path id="shape5" transform="matrix(5.34701408653319 -0.101167810010135 -0.0253953704165145 6.47824650406082 30.207483177971 21.5895311792889)" fill="#ff927e" fill-rule="evenodd" stroke="#000000" stroke-width="0.72" stroke-linecap="square" stroke-linejoin="bevel" d="M6.93203 11.664C4.91793 9.49889 3.99817 7.43266 4.17275 5.46531C4.49733 3.71271 5.94509 1.89094 8.51603 0C2.56333 2.2333 -0.268673 4.1533 0.0200316 5.76C0.740737 8.4707 3.04474 10.4387 6.93203 11.664Z" sodipodi:nodetypes="ccccc"/><path id="shape6" transform="matrix(5.34701408653319 -0.101167810010135 -0.0253953704165145 6.47824650406082 7.0102533002649 74.3797610302597)" fill="#ff927e" fill-rule="evenodd" stroke="#000000" stroke-width="0.72" stroke-linecap="square" stroke-linejoin="bevel" d="M19.656 18.7023C19.5153 14.5952 17.6858 11.9836 15.264 10.2783C13.3333 8.91885 14.3012 6.8404 12.024 5.95831C8.42905 4.12011 3.98818 2.30471 2.232 0.0543053C0.871335 -0.498357 1.1574 3.33523 0 3.94231C1.44937 4.47416 3.00937 5.45816 4.68 6.89431C6.6846 7.48646 8.2446 8.32646 9.36 9.41431C7.07275 9.17431 4.67275 8.50231 2.16 7.39831C0.825987 7.39831 2.37171 11.6282 2.952 12.4383C4.99538 13.2581 6.26474 18.415 14.832 21.3663C17.1039 22.2042 18.936 26.1183 20.952 26.5503C19.656 24.2463 19.008 20.5023 19.656 18.7023Z" sodipodi:nodetypes="cccccccccccc"/><path id="shape7" transform="matrix(5.34701408653319 -0.101167810010135 -0.0253953704165145 6.47824650406082 161.611661424686 14.716218097801)" fill="#ff927e" fill-rule="evenodd" stroke="#000000" stroke-width="0.72" stroke-linecap="square" stroke-linejoin="bevel" d="M5.76 0.389252C8.68292 2.15222 9.62417 5.33491 9.648 8.38125C9.72127 17.7451 0.0108519 19.3664 4.34704e-06 19.3253C-0.00624138 19.3016 6.72 17.2053 5.976 10.9733C5.976 8.56195 4.95359 3.93857 3.384 2.62125C1.15574 0.751119 3.89571 -0.735206 5.76 0.389252Z" sodipodi:nodetypes="csscss"/><path id="shape8" transform="matrix(5.34701408653319 -0.101167810010135 -0.0253953704165145 6.47824650406082 122.88010658385 74.9012001466982)" fill="#ff927e" fill-rule="evenodd" stroke="#000000" stroke-width="0.72" stroke-linecap="square" stroke-linejoin="bevel" d="M3.384 12.6314C19.201 9.75787 17.2502 4.17806 18.393 0C21.302 1.93928 20.6339 3.5066 20.7859 5.90576C20.3923 8.5936 21.8028 8.92289 21.0404 10.6405C10.1268 20.4198 6.09709 17.7386 0 18.7874C0.0677749 14.9671 2.232 15.1424 3.384 12.6314Z" sodipodi:nodetypes="cccccc"/><path id="shape9" transform="matrix(5.34701408653319 -0.101167810010135 -0.0253953704165145 6.47824650406082 117.722090479023 179.873286370463)" fill="#ff927e" fill-rule="evenodd" stroke="#000000" stroke-width="0.72" stroke-linecap="square" stroke-linejoin="bevel" d="M18.3135 0C13.7708 3.35659 7.72224 4.71424 0.167756 4.07294C-0.341987 6.29722 0.309947 8.13004 2.12356 9.5714C11.695 8.23638 17.0916 5.04591 18.3135 0Z" sodipodi:nodetypes="cccc"/><path id="shape011" transform="matrix(3.28425633553647 0 0 -3.28425633553647 197.704698379087 249.407991107339)" fill="#000000" stroke="#000000" stroke-width="1.44" stroke-linecap="square" stroke-linejoin="bevel" d="M0 0L0.144 21.6C4.55503 20.0621 3.82175 15.8302 4.10402 12.744C5.22735 14.0648 5.76866 16.1181 8.13602 15.912C11.5993 15.6105 12.4243 12.8749 12.528 8.208C12.6319 3.53133 11.8643 2.90079 10.656 2.736C8.13344 2.39198 5.88838 2.88836 4.41932 4.24143C11.7542 7.18939 1.95897 13.3027 2.25932 5.68143C2.29797 4.70071 1.97667 0.666017 11.1873 0.641432C15.4168 0.630142 16.8587 3.65196 16.848 8.208C16.8312 15.3394 13.9783 18.4918 8.496 19.008C5.07342 16.1279 5.24802 19.461 4.64592 21.4526L0.146586 21.5926C0.048862 21.5975 0 14.4 0 0Z" sodipodi:nodetypes="cccssscssscccc"/><path id="shape1" transform="matrix(3.28425643480042 0 0 3.28425643480042 197.577792822868 11.1358610989492)" fill="#000000" fill-rule="evenodd" stroke="#000000" stroke-width="1.44" stroke-linecap="square" stroke-linejoin="bevel" d="M0 0L0.144 21.6C4.55503 20.0621 3.82175 15.8302 4.10402 12.744C5.22735 14.0648 5.76866 16.1181 8.13602 15.912C11.5993 15.6105 12.4243 12.8749 12.528 8.208C12.6319 3.53133 11.8643 2.90079 10.656 2.736C8.13344 2.39198 5.88838 2.88836 4.41932 4.24143C11.7542 7.18939 1.95897 13.3027 2.25932 5.68143C2.29797 4.70071 1.97667 0.666017 11.1873 0.641432C15.4168 0.630142 16.8587 3.65196 16.848 8.208C16.8312 15.3394 13.9783 18.4918 8.496 19.008C5.07342 16.1279 5.24802 19.461 4.64592 21.4526L0.146586 21.5926C0.048862 21.5975 0 14.4 0 0Z" sodipodi:nodetypes="cccssscssscccc"/><rect id="shape0" transform="matrix(5.29230507022502 0 0 5.29230507022502 199.295996949316 87.0157274157863)" fill="#000000" fill-rule="evenodd" stroke="#000000" stroke-width="1.44" stroke-linecap="square" stroke-linejoin="bevel" width="2.28558253654896" height="16.6224184476287"/><g id="group0" transform="matrix(1.1756979267425 0 0 1.1756979267425 7.71102899478171 181.151994434589)" fill="none">
  <path id="shape012" transform="matrix(1.35769454872951 0 0 1.28752654728301 7.62481221725528 18.2622720838048)" fill="none" stroke="#000000" stroke-width="1.44" stroke-linecap="square" stroke-linejoin="bevel" d="M0 19.872C0 13.248 0 6.624 0 0" sodipodi:nodetypes="cc"/>
  <path id="shape111" transform="matrix(1.35769454872951 0 0 1.28752654728301 0 16.5009359117636)" fill="none" stroke="#000000" stroke-width="1.44" stroke-linecap="square" stroke-linejoin="bevel" d="M0 0.864C6.96174 0.864 12.8365 0 19.296 0" sodipodi:nodetypes="cc"/>
  <path id="shape21" transform="matrix(1.35769454872951 0 0 1.28752654728301 22.2879128338691 16.5009359117636)" fill="none" stroke="#000000" stroke-width="1.44" stroke-linecap="square" stroke-linejoin="bevel" d="M0 0C0 7.15042 0.576 13.7559 0.576 20.448" sodipodi:nodetypes="cc"/>
  <path id="shape31" transform="matrix(1.35769454872951 0 0 1.28752654728301 34.800425302006 27.6251648420288)" fill="none" stroke="#000000" stroke-width="1.44" stroke-linecap="square" stroke-linejoin="bevel" d="M0 0C1.91697 1.91697 8.928 6.60858 8.928 8.928" sodipodi:nodetypes="cc"/>
  <path id="shape41" transform="matrix(1.35769454872951 0 0 1.28752654728301 37.9285534190407 26.8835495800112)" fill="none" stroke="#000000" stroke-width="1.44" stroke-linecap="square" stroke-linejoin="bevel" d="M0 8.352C0 5.0214 5.472 2.6629 5.472 0" sodipodi:nodetypes="cc"/>
  <path id="shape51" transform="matrix(1.35769454872951 0 0 1.28752654728301 47.2152061334515 23.4535847421094)" fill="none" stroke="#000000" stroke-width="1.44" stroke-linecap="square" stroke-linejoin="bevel" d="M0 0C0 1.40581 1.656 2.59799 1.656 3.744" sodipodi:nodetypes="cc"/>
  <path id="shape61" transform="matrix(1.35769454872951 0 0 1.28752654728301 49.4635484170428 24.56600773383)" fill="none" stroke="#000000" stroke-width="1.44" stroke-linecap="square" stroke-linejoin="bevel" d="M0 2.88C0 1.77237 1.728 0.864516 1.728 0" sodipodi:nodetypes="cc"/>
  <path id="shape71" transform="matrix(1.35769454872951 0 0 1.28752654728301 51.6391797215876 24.56600773383)" fill="none" stroke="#000000" stroke-width="1.44" stroke-linecap="square" stroke-linejoin="bevel" d="M0.125556 0C-0.513281 0.958255 1.49356 2.32001 1.49356 2.88" sodipodi:nodetypes="cc"/>
  <path id="shape81" transform="matrix(1.35769454872951 0 0 1.28752654728301 53.6669709472345 21.8776521705052)" fill="none" stroke="#000000" stroke-width="1.44" stroke-linecap="square" stroke-linejoin="bevel" d="M0 4.968C0 3.25283 1.152 1.55913 1.152 0" sodipodi:nodetypes="cc"/>
  <path id="shape91" transform="matrix(1.35769454872951 0 0 1.28752654728301 61.7805539706291 9.17748968169497)" fill="none" stroke="#000000" stroke-width="1.44" stroke-linecap="square" stroke-linejoin="bevel" d="M0 0.864C5.06777 0.864 10.2364 0 15.264 0" sodipodi:nodetypes="cc"/>
  <path id="shape10" transform="matrix(1.35769454872951 0 0 1.28752654728301 69.4053669323723 -3.5527136788005e-15)" fill="none" stroke="#000000" stroke-width="1.44" stroke-linecap="square" stroke-linejoin="bevel" d="M0 0C0 1.56114 0.792 3.02297 0.792 4.608" sodipodi:nodetypes="cc"/>
  <path id="shape111" transform="matrix(1.35769454872951 0 0 1.28752654728301 62.0738160076189 12.7847796366234)" fill="none" stroke="#000000" stroke-width="1.44" stroke-linecap="square" stroke-linejoin="bevel" d="M6.12 0.00627929C5.77271 0.00627929 0 -0.0861564 0 0.438279" sodipodi:nodetypes="cc"/>
  <path id="shape12" transform="matrix(1.35769454872951 0 0 1.28752654728301 62.0738160076189 13.3490759006472)" fill="none" stroke="#000000" stroke-width="1.44" stroke-linecap="square" stroke-linejoin="bevel" d="M0 0C0 0.734249 3.2736 2.4816 3.744 2.952" sodipodi:nodetypes="cc"/>
  <path id="shape13" transform="matrix(1.35769454872951 0 0 1.28752654728301 64.1266502665496 17.126574963511)" fill="none" stroke="#000000" stroke-width="1.44" stroke-linecap="square" stroke-linejoin="bevel" d="M2.232 0.0180808C1.67654 -0.25965 0.29664 2.75408 0 2.75408" sodipodi:nodetypes="cc"/>
  <path id="shape14" transform="matrix(1.35769454872951 0 0 1.28752654728301 64.1266502665496 20.1992947245593)" fill="none" stroke="#000000" stroke-width="1.44" stroke-linecap="square" stroke-linejoin="bevel" d="M0 0.367553C0.782667 -0.415114 4.4212 0.295553 5.76 0.295553" sodipodi:nodetypes="cc"/>
  <path id="shape15" transform="matrix(1.35769454872951 0 0 1.28752654728301 74.4885755735354 13.6271816485774)" fill="none" stroke="#000000" stroke-width="1.44" stroke-linecap="square" stroke-linejoin="bevel" d="M0 0C0 1.80806 2.736 3.91419 2.736 5.544" sodipodi:nodetypes="cc"/>
  <path id="shape16" transform="matrix(1.35769454872951 0 0 1.28752654728301 78.0452389562154 16.1301333799487)" fill="none" stroke="#000000" stroke-width="1.44" stroke-linecap="square" stroke-linejoin="bevel" d="M0.116364 3.6C-0.468296 2.04091 1.34036 1.0867 1.34036 0" sodipodi:nodetypes="cc"/>
  <path id="shape17" transform="matrix(1.35769454872951 0 0 1.28752654728301 79.8650462516884 16.1301333799487)" fill="none" stroke="#000000" stroke-width="1.44" stroke-linecap="square" stroke-linejoin="bevel" d="M0 0C0.207234 1.03617 1.38032 2.60432 2.088 3.312" sodipodi:nodetypes="cc"/>
  <path id="shape18" transform="matrix(1.35769454872951 0 0 1.28752654728301 82.6999126092593 12.9782682367404)" fill="none" stroke="#000000" stroke-width="1.44" stroke-linecap="square" stroke-linejoin="bevel" d="M0 5.76C0 3.89445 0.864 2.00683 0.864 0" sodipodi:nodetypes="cc"/>
 </g>
</svg>
